/* XPM */
static char *_6fc664f57494b9e987e7481f24e983a[] = {
/* columns rows colors chars-per-pixel */
"32 32 2 1 ",
"  c None",
". c black",
/* pixels */
"              ....              ",
"             ......             ",
"            ........            ",
"            ........            ",
"            ........            ",
"            ........            ",
"             ......             ",
"             .....              ",
"                                ",
"                                ",
"              ....              ",
"             ......             ",
"             .......            ",
"            ........            ",
"           ..........           ",
"          ............          ",
"         ..............         ",
"         .... .... ....         ",
"       .....  ....  .....       ",
"      ......  ....  ......      ",
"     ......   ....   ......     ",
"    ......   ......   ......    ",
"    ....    ........    ....    ",
"     ..    ..........    ..     ",
"         ......  ......         ",
"        ......    ......        ",
"       ......      ......       ",
"      ......         .....      ",
"    ..........    ..........    ",
"    ...........  ...........    ",
"    ........... ............    ",
"    ...........  ...........    "
};
