/* XPM */
static char *bd073a26b16f474cfa33579acaad55b9[] = {
/* columns rows colors chars-per-pixel */
"64 64 34 1 ",
"  c #010101",
". c #070707",
"X c #090909",
"o c gray5",
"O c #131313",
"+ c gray9",
"@ c gray10",
"# c #1D1D1D",
"$ c #202020",
"% c #272727",
"& c gray17",
"* c #2D2D2D",
"= c gray19",
"- c #373737",
"; c gray22",
": c #3F3F3F",
"> c #434343",
", c #444444",
"< c #484848",
"1 c #4C4C4C",
"2 c #515151",
"3 c #555555",
"4 c #5B5B5B",
"5 c gray37",
"6 c #606060",
"7 c #646464",
"8 c #6A6A6A",
"9 c #6F6F6F",
"0 c gray45",
"q c gray46",
"w c #797979",
"e c #7C7C7C",
"r c gray51",
"t c gray55",
/* pixels */
"<<<<<<<<<<<<1<1<<<<<<<<1<<<<<<<<<<1<<<<<<<<<<<<<<1<1<<<<<<<<1<<<",
"<<<<1<<<<<<<<1<1<<<<<<<<1<<<<<<<<<<1<<<<<1<<<<<<<<1<1<<<<<<<<1<<",
"<<<1<1<1<<<1<<1<<<<<1<<<<1<<<<<1<<<<1<<<1<1<1<<<1<<1<<<<<1<<<<1<",
"<<<<<<1<1<1<<<<<<<<<11<<1<<<<<<11<<1<<<<<<<1<1<1<<<<<<<<<11<<1<<",
";;;;;;;;;;;;;;;;;;;;;;;;;;;;;;;;;-;;;-;;;;;;;;;;;;;;;;;;;;;;;;;;",
"**===*==*==*==========-=====-====-===-===========-=*==*==*=====*",
"****==**rw0900q00q0qq0q0q0qq0q0000qqqqq0q000qq000q095>*==*===***",
"&**=****w74577557777777666777755677777766668776668652:**=****=*=",
"********04,><<<<<<<<<<<<<<1<<,<<<<<<<<<<<<<1<<<<<<<1,;=*******=*",
"********93:*%&-;*$%%%%&=-*%$%&-;=&%%%$%*-=&%$%=-=%&:,:*****==*=*",
"*******&05:#.O==@. ...o$&#X  O*-$X ...X@&$o. X@&#XO=<>**********",
"*****&**05:+ +;:@     X#%@   o=>&.     @&$X   @&# X*<>**********",
"********06:+ @<1#     o&=#   O:3=.     #=&o   $=% .*<>&&&******&",
"*&*&&&*&05:O $44%     o*;%   +<6;.    .$-*o  .$;&..*<:&****&***&",
"&&&&*&&*05:O $34%     o*;$.  +16:.     $;*o   $;&.X*<>&&&*&*&*&&",
"&*&&&&&&05:+ #34$     o*;$   +15;.     $-*o   $;%..*,>&&&&*&*&&&",
"&&&&&&&&05:O #34%     X*;$.  +16;.     $-*o  .$;%..&<<***&&&&&%&",
"&&&&&%%&05:+ $33$     o*;$.  O<5;.    .$-*o   $;%..&<2,:&&&%&&%%",
"&&&&&%&&05:+ $34%     X*;$   O<6;X     $-*o   $;%..&<1,:&&%&&&%%",
"&%%%%&%%05:O #34$     o*-$.  +<6;X    .$-&o   $;& .&<<:=&&&&%%&%",
"%%%%%%%&05:O $34$     X*;$.  +<6;.     $-&o   $;%..&,<:-&&%&%%%%",
"&%%%&%%%06:+ #33%     o*;$.  +<5:.     $-*o  .$;%..%133<%%%%&%%$",
"%%%%%%%%05:O #34%     X*;$   +16;.     $-&o   $;%. %1562%&%&%%%%",
"%&&%&%&%05:+ $34$     o*-$.  +<5;.    .$-*o   $;%..&<22>&%%%&%%$",
"&%%&%&%&05:O #33$     X*-$.  +<6;X     $-*o   $;%.X*<>=&&%&%%%%$",
"&&&%%&&%94>$@=44-o    o*;$   +<5;X     $-&o   $;%.X*<:&&&%%&&&&%",
"&&&&&%%&94,><3661-@   X*;$.  +<6;.    .#-*o  .#;%..*<>&&&&&%%%%&",
"&&%&&%&&93,2686562%.  o*;$   +<5:.    .$-&o   $;%..*<>&&&&%&&&&&",
"&&&&&&&&92<1555551%.  X*;$.  +16;.     $-*o  .$;%..&<>*&&&&&&%&&",
"&&&&&&&&03<,<<<12,$.  o&;$   O<5;.     $-&o   $;%..*,>&*&&&&&&&&",
"&&&%&&&&93,,,;&&>,%   X*;$.  O<6;X    .#-*o   $;%..*<>&*&&&&&&&&",
"&&&&&&&*93<<<*Xo-,&.  o*;%   +<6;X    .$-*o   $-%..*,>*&*&&*&*&&",
"&&&&&&&*03<1<&..-<&.  X*;$   +<6;X     $-&o   $;&..&<>******&*&*",
"**&&&***94,<<=+@;,%   o*;$.  +<5;X     $-*o   $;%..*,>***&******",
"&**&&***93,,<>--<,%.  X*;$.  +16;.    .#-&o  .#;%..*<>**********",
"&******=03,>,<122,#.  o&;$   +<5:.    .$-*o   $;%..*<>*=********",
"********93,><2564>#.  X*;$.  +<6;.     $-&o  .$;%..*<>=*=*****=*",
"******=*93,><2554>$   o*;$   +<5;.     $-*o   $;%..*<:****===*=*",
"&&******03,><<122,$.  o*;$.  +<6;X    .#-*o   $;%..&<:*=*==**=**",
"%&&&****94,,1<,<2,$.  o*;$   +<5;X    .$-*o   $;&..&<>*=======*=",
"6777777793,,21<131%.  X*;$.  +16;.     $;*o   $;%..*,>7777777777",
"<<1<<11<03,>>,,<<:#.  o*;$.  O<5:.     $;*o  .$;%..*<><1<1<<<<<<",
"<1<<<<1<04>&#&:>=@X   X*;$   O<6;.     $-*o   $;%..*<><<1<1<1<<<",
"<<1<<<<<05:+ @:>#     o*-$.  +<6;.    .$-&o   $;%..*<><<<<<1<<<<",
"<<<1<<<<05:O @<<#     X*;$.  +<6;X     $-&o   $;%..*<>,<<<<<<<<<",
"<<<1<1<106:+ $32$     o*;$.  +<5;X    .$-*o   $;& X*<:<<<1<<<<1<",
"#@@##@##05:O $44%     X*;$   +16;.     $-*o  .#;& X*<<;*###@@###",
"%&%%&%%&05:+ $34%     o*-$.  +<5:.     $-&o   $;%..&122,&%%%&%%&",
"&***&*&&05:O $34%     X*;$.  +<6;.     $-*o  .$;%..$1573****&***",
"*<25321&05:O #34$     o&;$   +<5;.    .$-*o   $;%..%<574<3243<%*",
"&:e53>,&06:O $33%     X*;$.  +<6;X     $-*o   $;&  %1562>600;<&&",
"&>t41;<%05:+ $34$     o*;$   +<5;X    .$-&o   $;%..&<341>4t9><%&",
"*:w3>-<&06:O $34%     X*;$.  +16;.     $-&o   $;%..&<21,:407,<&&",
"&>03,:,%05:O #34$     o*;$   O<5:.     $-*o  .$;%..&<<>->0673<%&",
"&:9<<<<&05:+ $33%     X*;$.  O<6;.     $-&o   $;%..&<,=*:977<<&&",
"&>63<1<&06:O $34$     o*;%   +<6;.    .$-*o   $;%..*<>&*>9771<%&",
"&>65<3,%05:O $34%     X*;$   +<6;X     $-&o   $;%.X*,:&&:t092<&&",
"&>73>1<&06:O #34$     o*;$.  +16;X     $-&o   $;&..*<:&*>wew1<%*",
"&>52,3<&q6>O $34$     X&-$   +<6:.    .#-&o   #-% X=1,*&:ee95<&&",
"&:73,>,%q6:O $34%     o&-$.  O16;X    .#-*o  .#-%.X=2,&*:ee04<%&",
"&>6313<%85>$O&22&oXOoo#=;&O.X$<4;+XOoo+&;-@o.+&;*++;2,*&:0w02<&&",
"*-;=;;;&42,;=:11:=*-==->,:-**;<2,-*===-;>>-=*=:>:=;<1>**-;;=;;%*",
"&##@#@@#1<,<<<<<<<<<<<,<<<,<<<<,<<<<<,<<,<<<<<<<<,121:&&@#@##@#&",
"*&**&******&*&**&******&**************&**&*&**&******&**&**&**&*"
};
