/* XPM */
static char *_3188_b89eb3b37f27ebd488b4c4dbbc02056eb65aa07bd573d945787b0bc963a77343[] = {
/* columns rows colors chars-per-pixel */
"16 16 51 1 ",
"  c #3E491A",
". c #48521F",
"X c #4C581F",
"o c #4C591F",
"O c #4E5928",
"+ c #5F6C31",
"@ c #616D2F",
"# c #606C32",
"$ c #575C46",
"% c #5D6447",
"& c #656D4C",
"* c #68704A",
"= c #69714A",
"- c #69714B",
"; c #777C67",
": c #7D8C4B",
"> c #90A83E",
", c #808D51",
"< c #98AB56",
"1 c #99AC56",
"2 c #9AAD57",
"3 c #9BAE57",
"4 c #9CAF58",
"5 c #9CB058",
"6 c #9DB159",
"7 c #A1B459",
"8 c #A6BA5C",
"9 c #A7BD5C",
"0 c #ADC45A",
"q c #BEDA5B",
"w c #C0DB60",
"e c #C4DE65",
"r c #C7E364",
"t c #C8E367",
"y c #C9E468",
"u c #CCE769",
"i c #CFEB6B",
"p c #8E9282",
"a c #8E9283",
"s c #8F9283",
"d c #939689",
"f c #95988A",
"g c #96998B",
"h c #979A8C",
"j c #989B8D",
"k c #9A9D8F",
"l c #9B9D90",
"z c #C8C9C7",
"x c #CBCCCA",
"c c #DDDEDC",
"v c None",
/* pixels */
"vvO#++++++++@.vv",
"v0iiiiiiiiiiii>v",
"Oiiiiiiiiiiiiiq ",
"#iiiiiiiiiii9:ro",
"+iiiiiiiiii7s;wX",
"+iiiiiiiii7ad<rX",
"+iiiiiiii7af1irX",
"+ieiiiii7ag2iirX",
"+t$&yii7ph3iiirX",
"+i=z&y7pj4iiiirX",
"+iu*x%pk5iiiiirX",
"+iiu-cl6iiiiiirX",
"#iiiu,8iiiiiiiro",
"Oiiiiiiiiiiiiiq ",
"v0iiiiiiiiiiii>v",
"vvO#++++++++@.vv"
};
