/* XPM */
static char *_2030_7f9e0de17c90a8ba67d767de9c4fc8bde350c9cf9b6ca8105dfc5a8c4d412a38[] = {
/* columns rows colors chars-per-pixel */
"32 32 52 1 ",
"  c #2D3E50",
". c #2C3F51",
"X c #2E3E50",
"o c #2E3F50",
"O c #3D414F",
"+ c #3D424F",
"@ c #2C4053",
"# c #2C4256",
"$ c #2C445A",
"% c #35495F",
"& c #334B63",
"* c #354A60",
"= c #354B61",
"- c #344A62",
"; c #334B64",
": c #324C66",
"> c #2B516F",
", c #345069",
"< c #33526D",
"1 c #2A547A",
"2 c #29557D",
"3 c #2A547C",
"4 c #2B597B",
"5 c #44434F",
"6 c #52464E",
"7 c #58474E",
"8 c #58474F",
"9 c #454450",
"0 c #4E6C6A",
"q c #546F67",
"w c #E0BE26",
"e c #EBC21D",
"r c #809E74",
"t c #8CA26A",
"y c #285680",
"u c #2A638B",
"i c #2F648A",
"p c #2A638C",
"a c #2F668E",
"s c #2A6D9C",
"d c #2D6F9D",
"f c #2C70A0",
"g c #2C71A1",
"h c #2B75A7",
"j c #2B79AE",
"k c #2A7AB0",
"l c #2A7BB1",
"z c #297FB8",
"x c #297FB9",
"c c #2980BA",
"v c #3082B4",
"b c None",
/* pixels */
"bbbbbbbb7777777777777777bbbbbbbb",
"bbbbbbb86OOOOOOOOOOOOOO68bbbbbbb",
"bbbbbbb85$uppppppppppu$58bbbbbbb",
"bbbbbbb854cccccccccccc458bbbbbbb",
"bbbbbbb854cccckddkcccc458bbbbbbb",
"bbbbbbb854ccxi*::*ixcc458bbbbbbb",
"bbbbbbb854cca;3yy3;acc458bbbbbbb",
"bbbbbbb854cz=1yyyy1=zc458bbbbbbb",
"bbbbbbb854ch-yyyyyy-hc458bbbbbbb",
"bbbbbbb854cf;yyyyyy;fc458bbbbbbb",
"bbbbbbb854cf;yyyyyy;fc458bbbbbbb",
"bbbbbbb854cf;yyyyyy;fc458bbbbbbb",
"bbbbbbb854cf;yyyyyy;fc458bbbbbbb",
"bbbbbbb854cf;yyyyyy;fc458bbbbbbb",
"bbbbbbb854cf;yyyyyy;fc458bbbbbbb",
"bbbbbbb854cf;yyyyyy;fc458bbbbbbb",
"bbbbbbb854cf;yyyyyy;fc458bbbbbbb",
"bbbbbbb854cf;222222;fc458bbbbbbb",
"bbbbbbb854cg========gc458bbbbbbb",
"bbbbbbb854ccccccccccrw058bbbbbbb",
"bbbbbbb854ccccccccccteq58bbbbbbb",
"bbbbbbb854cj<,,,,,,<jv458bbbbbbb",
"bbbbbbb854cf&111111&fc458bbbbbbb",
"bbbbbbb854cf;yyyyyy;fc458bbbbbbb",
"bbbbbbb854cf;yyyyyy;fc458bbbbbbb",
"bbbbbbb854cf;yyyyyy;fc458bbbbbbb",
"bbbbbbb854cf;yyyyyy;fc458bbbbbbb",
"bbbbbbb854cf;yyyyyy;fc458bbbbbbb",
"bbbbbbb854ch%%%%%%%%hc458bbbbbbb",
"bbbbbbb854ccljjjjjjlcc458bbbbbbb",
"bbbbbbb9+>ssssssssssss>+9bbbbbbb",
".      oX@############@Xo      ."
};
