/* XPM */
static char *_2307_9bbcf5a4e24ae45d037e93f4c988755f161e43c18b2ddee65fcfe0c1126fe08b[] = {
/* columns rows colors chars-per-pixel */
"32 32 38 1 ",
"  c black",
". c #040404",
"X c #040505",
"o c #0E0E0F",
"O c #020A10",
"+ c #0F1316",
"@ c #051C2D",
"# c #061D2E",
"$ c #061F31",
"% c #061F32",
"& c #061F33",
"* c #061F34",
"= c #1C2328",
"- c #08253D",
"; c #202222",
": c #222425",
"> c #27292A",
", c #2C2E30",
"< c #2D3031",
"1 c #2E3030",
"2 c #2E3031",
"3 c #2E3132",
"4 c #383C3C",
"5 c #0F446D",
"6 c #484B4C",
"7 c #484B4D",
"8 c #505657",
"9 c #53565A",
"0 c #5D6263",
"q c #74797B",
"w c #135488",
"e c #1B79C3",
"r c #7D8285",
"t c #2196F3",
"y c #A6AEB1",
"u c #C7D0D3",
"i c #CFD8DC",
"p c None",
/* pixels */
"pppppppppppppppppppppppppppppppp",
"pppppppppppppppppppppppppppppppp",
"ppppppppppppppppppppp--ppppppppp",
"pppppppppppppppppppp%OO%pppppppp",
"ppppppppppppppppppp$OeeO%ppppppp",
"pppppppppppppppppp&OetteO%pppppp",
"ppppppppppppppppp&OetttteO%ppppp",
"pppppppppppppppp&OetttttteO%pppp",
"ppppppppppppppp&OetttttttteO%ppp",
"pppppppppppppp&OetttttttttteO%pp",
"ppppppppppppp*OetttttttttttteO%p",
"pppppppppppp&OetttttttttttttteO-",
"ppppppppppp@OettttttttttttttteO-",
"pppppppppp> 5ttttttttttttttteO%p",
"ppppppppp,o0 wttttttttttttteO&pp",
"pppppppp<oyiq wttttttttttteO&ppp",
"ppppppp2oyiiiq wttttttttteO&pppp",
"pppppp3oyiiiiiq wttttttteO&ppppp",
"ppppp6.yiiiiiiiq wttttteO&pppppp",
"ppppp;7iiiiiiiiiq wttteO*ppppppp",
"ppppp;7iiiiiiiiiiq wteO*pppppppp",
"ppppp6.yiiiiiiiiiiq 5O&ppppppppp",
"pppppp3oyiiiiiiiiii0 #pppppppppp",
"ppppppp1oyiiiiiiiiyo:ppppppppppp",
"pppppppp1oyiiiiiiyo<pppppppppppp",
"ppppppppp1oruiiuro2ppppppppppppp",
"pppppppppp4      4pppppppppppppp",
"pppppppppppp9889pppppppppppppppp",
"p=======================pppppppp",
"+                       Xppppppp",
"pppppppppppppppppppppppppppppppp",
"pppppppppppppppppppppppppppppppp"
};
