/* XPM */
static char *f23148b734cd421cd0d16f09ae98774f[] = {
/* columns rows colors chars-per-pixel */
"24 24 2 1 ",
"  c None",
". c black",
/* pixels */
"                        ",
"                        ",
"         ..             ",
"        ....            ",
"       .....            ",
"      .....             ",
"     .....              ",
"    .....               ",
"   .....                ",
"  .....                 ",
" .......................",
"........................",
"........................",
" ...................... ",
"  .....                 ",
"   .....                ",
"    .....               ",
"     .....              ",
"      .....             ",
"       .....            ",
"        ....            ",
"         ..             ",
"                        ",
"                        "
};
