/* XPM */
static char *f4886cf5a715448090e4e5cc509505ff[] = {
/* columns rows colors chars-per-pixel */
"24 24 2 1 ",
"  c None",
". c black",
/* pixels */
"                        ",
"                        ",
"             ..         ",
"            ....        ",
"            .....       ",
"             .....      ",
"              .....     ",
"               .....    ",
"                .....   ",
"                 .....  ",
"....................... ",
"........................",
"........................",
" ...................... ",
"                 .....  ",
"                .....   ",
"               .....    ",
"              .....     ",
"             .....      ",
"            .....       ",
"            ....        ",
"             ..         ",
"                        ",
"                        "
};
